<svg width="136" height="143" viewBox="0 0 136 143" fill="none" xmlns="http://www.w3.org/2000/svg">
<path d="M21.4647 128.851C21.4647 133.018 20.3148 136.229 18.0149 138.483C15.7264 140.737 12.5043 141.864 8.34856 141.864H0.270508V116.896H8.91214C12.9199 116.896 16.011 117.921 18.1857 119.97C20.3717 122.019 21.4647 124.98 21.4647 128.851ZM14.4626 129.09C14.4626 126.801 14.0072 125.105 13.0963 124C12.1969 122.896 10.8249 122.344 8.98046 122.344H7.01645V136.331H8.51934C10.5687 136.331 12.0716 135.739 13.028 134.555C13.9844 133.359 14.4626 131.538 14.4626 129.09Z" fill="white"/>
<path d="M37.2451 122.173C37.8258 122.173 38.378 122.219 38.9017 122.31L39.2774 122.378L38.6797 128.68C38.1332 128.543 37.376 128.475 36.4083 128.475C34.9509 128.475 33.892 128.811 33.2317 129.483C32.5713 130.143 32.2411 131.099 32.2411 132.352V141.864H25.5635V122.515H30.5333L31.5751 125.606H31.8996C32.4575 124.581 33.2317 123.756 34.2222 123.129C35.2242 122.492 36.2318 122.173 37.2451 122.173Z" fill="white"/>
<path d="M51.3347 142.206C48.1126 142.206 45.6078 141.352 43.8202 139.644C42.0441 137.925 41.156 135.483 41.156 132.318C41.156 129.05 41.9815 126.545 43.6324 124.803C45.2833 123.05 47.6401 122.173 50.7028 122.173C53.6175 122.173 55.8662 122.936 57.4488 124.462C59.0427 125.976 59.8397 128.162 59.8397 131.02V133.991H47.902C47.9475 135.073 48.3403 135.921 49.0804 136.536C49.8318 137.151 50.8508 137.458 52.1374 137.458C53.3101 137.458 54.386 137.35 55.3652 137.134C56.3557 136.906 57.426 136.525 58.5759 135.989V140.788C57.5285 141.324 56.4468 141.694 55.331 141.899C54.2153 142.103 52.8831 142.206 51.3347 142.206ZM50.9419 126.716C50.1563 126.716 49.4959 126.966 48.9608 127.467C48.4371 127.957 48.1297 128.731 48.0386 129.79H53.7769C53.7541 128.856 53.4866 128.111 52.9742 127.553C52.4733 126.995 51.7958 126.716 50.9419 126.716Z" fill="white"/>
<path d="M76.2349 141.864L74.954 139.303H74.8174C73.918 140.418 73.0014 141.181 72.0678 141.591C71.1342 142.001 69.9273 142.206 68.4472 142.206C66.6255 142.206 65.1909 141.659 64.1435 140.566C63.096 139.473 62.5723 137.936 62.5723 135.955C62.5723 133.895 63.2895 132.363 64.7241 131.361C66.1587 130.348 68.2366 129.779 70.9577 129.653L74.1855 129.551V129.278C74.1855 127.684 73.3999 126.887 71.8287 126.887C70.4169 126.887 68.6237 127.365 66.449 128.321L64.5192 123.915C66.7735 122.754 69.6199 122.173 73.0583 122.173C75.5404 122.173 77.4589 122.788 78.8137 124.018C80.18 125.247 80.8631 126.966 80.8631 129.175V141.864H76.2349ZM71.2822 137.492C72.0906 137.492 72.7794 137.236 73.3487 136.724C73.9293 136.211 74.2197 135.545 74.2197 134.726V133.223L72.6826 133.291C70.4852 133.371 69.3865 134.179 69.3865 135.716C69.3865 136.9 70.0184 137.492 71.2822 137.492Z" fill="white"/>
<path d="M109.162 141.864V131.344C109.162 130.035 108.98 129.056 108.615 128.407C108.262 127.746 107.699 127.416 106.925 127.416C105.9 127.416 105.149 127.854 104.67 128.731C104.192 129.608 103.953 130.98 103.953 132.847V141.864H97.2583V131.344C97.2583 130.035 97.0876 129.056 96.746 128.407C96.4044 127.746 95.8522 127.416 95.0894 127.416C94.0419 127.416 93.2791 127.883 92.8009 128.817C92.3227 129.75 92.0836 131.276 92.0836 133.394V141.864H85.406V122.515H90.4441L91.2809 124.906H91.6737C92.1861 124.018 92.9261 123.34 93.8939 122.873C94.8731 122.406 95.9832 122.173 97.2242 122.173C100.014 122.173 101.972 123.021 103.099 124.718H103.629C104.175 123.921 104.932 123.3 105.9 122.856C106.879 122.401 107.955 122.173 109.128 122.173C111.416 122.173 113.107 122.759 114.2 123.932C115.293 125.105 115.84 126.887 115.84 129.278V141.864H109.162Z" fill="white"/>
<path d="M135.326 135.921C135.326 137.993 134.62 139.559 133.208 140.618C131.796 141.677 129.77 142.206 127.128 142.206C125.694 142.206 124.447 142.126 123.388 141.967C122.329 141.819 121.248 141.54 120.143 141.13V135.785C121.179 136.24 122.312 136.616 123.542 136.912C124.783 137.208 125.887 137.356 126.855 137.356C128.301 137.356 129.024 137.026 129.024 136.365C129.024 136.024 128.819 135.722 128.409 135.46C128.011 135.187 126.838 134.663 124.891 133.889C123.115 133.16 121.874 132.335 121.168 131.412C120.462 130.479 120.109 129.3 120.109 127.877C120.109 126.078 120.804 124.678 122.193 123.676C123.582 122.674 125.546 122.173 128.085 122.173C129.36 122.173 130.555 122.315 131.671 122.6C132.798 122.873 133.965 123.277 135.172 123.813L133.362 128.116C132.474 127.718 131.535 127.382 130.544 127.109C129.553 126.824 128.745 126.682 128.119 126.682C127.026 126.682 126.479 126.949 126.479 127.484C126.479 127.815 126.667 128.099 127.043 128.338C127.43 128.566 128.534 129.039 130.356 129.756C131.711 130.314 132.719 130.86 133.379 131.395C134.051 131.93 134.54 132.562 134.848 133.291C135.167 134.008 135.326 134.885 135.326 135.921Z" fill="white"/>
<path d="M0.303711 108.851V82.8842H7.35501V108.851H0.303711Z" fill="white"/>
<path d="M25.2763 108.851V97.8749C25.2763 96.5368 25.0809 95.5303 24.6902 94.8554C24.3113 94.1686 23.6956 93.8252 22.843 93.8252C21.6707 93.8252 20.8241 94.293 20.3031 95.2284C19.7821 96.1638 19.5216 97.7683 19.5216 100.042V108.851H12.5769V88.7277H17.8165L18.6868 91.2143H19.0953C19.6874 90.267 20.5044 89.5566 21.5464 89.0829C22.6003 88.6093 23.808 88.3725 25.1698 88.3725C27.3959 88.3725 29.1246 89.0178 30.3561 90.3085C31.5994 91.5991 32.2211 93.4167 32.2211 95.7612V108.851H25.2763Z" fill="white"/>
<path d="M58.9521 108.851H52.0073V88.7277H58.9521V108.851ZM51.8297 83.719C51.8297 82.677 52.1198 81.9014 52.7 81.3922C53.2802 80.8831 54.2157 80.6285 55.5063 80.6285C56.797 80.6285 57.7384 80.889 58.3304 81.41C58.9225 81.931 59.2185 82.7006 59.2185 83.719C59.2185 85.7556 57.9811 86.7739 55.5063 86.7739C53.0552 86.7739 51.8297 85.7556 51.8297 83.719ZM49.2365 93.9318H44.956V108.851H38.0113V93.9318H35.3471V90.5216L38.1534 88.8165V88.479C38.1534 85.8267 38.6922 83.9203 39.7697 82.7599C40.859 81.5994 42.5997 81.0192 44.9915 81.0192C45.9151 81.0192 46.7855 81.0903 47.6025 81.2324C48.4314 81.3745 49.3905 81.6231 50.4798 81.9784L48.9879 86.472C48.1353 86.2352 47.3005 86.1168 46.4835 86.1168C45.9507 86.1168 45.5599 86.2825 45.3113 86.6141C45.0744 86.9338 44.956 87.4607 44.956 88.1949V88.7277H49.2365V93.9318Z" fill="white"/>
<path d="M76.5004 108.851V97.8749C76.5004 96.5368 76.305 95.5303 75.9143 94.8554C75.5353 94.1686 74.9196 93.8252 74.0671 93.8252C72.8948 93.8252 72.0482 94.293 71.5272 95.2284C71.0062 96.1638 70.7457 97.7683 70.7457 100.042V108.851H63.8009V88.7277H69.0406L69.9109 91.2143H70.3194C70.9114 90.267 71.7285 89.5566 72.7705 89.0829C73.8243 88.6093 75.0321 88.3725 76.3938 88.3725C78.6199 88.3725 80.3487 89.0178 81.5802 90.3085C82.8235 91.5991 83.4451 93.4167 83.4451 95.7612V108.851H76.5004Z" fill="white"/>
<path d="M95.1499 108.851H88.2052V88.7277H95.1499V108.851ZM88.0276 83.719C88.0276 82.677 88.3177 81.9014 88.8979 81.3922C89.4781 80.8831 90.4135 80.6285 91.7042 80.6285C92.9949 80.6285 93.9362 80.889 94.5283 81.41C95.1203 81.931 95.4163 82.7006 95.4163 83.719C95.4163 85.7556 94.179 86.7739 91.7042 86.7739C89.2531 86.7739 88.0276 85.7556 88.0276 83.719Z" fill="white"/>
<path d="M109.856 103.718C110.792 103.718 111.911 103.487 113.213 103.026V108.088C112.278 108.49 111.384 108.774 110.531 108.94C109.691 109.118 108.702 109.207 107.565 109.207C105.232 109.207 103.551 108.638 102.521 107.502C101.491 106.353 100.976 104.595 100.976 102.226V93.9318H98.5424V91.1077L101.633 88.9231L103.427 84.6959H107.974V88.7277H112.911V93.9318H107.974V101.765C107.974 103.067 108.601 103.718 109.856 103.718Z" fill="white"/>
<path d="M126.446 109.207C123.095 109.207 120.49 108.319 118.631 106.542C116.783 104.754 115.86 102.215 115.86 98.9228C115.86 95.5244 116.718 92.9194 118.435 91.1077C120.152 89.2842 122.603 88.3725 125.788 88.3725C128.82 88.3725 131.158 89.1658 132.804 90.7525C134.462 92.3274 135.291 94.6008 135.291 97.5729V100.663H122.876C122.923 101.788 123.331 102.67 124.101 103.31C124.883 103.949 125.942 104.269 127.28 104.269C128.5 104.269 129.619 104.156 130.637 103.932C131.667 103.695 132.781 103.298 133.976 102.742V107.732C132.887 108.289 131.762 108.674 130.602 108.887C129.441 109.1 128.056 109.207 126.446 109.207ZM126.037 93.097C125.22 93.097 124.533 93.3575 123.977 93.8785C123.432 94.3877 123.112 95.1929 123.018 96.2941H128.985C128.962 95.3231 128.684 94.5475 128.151 93.9673C127.63 93.3871 126.925 93.097 126.037 93.097Z" fill="white"/>
<path d="M66.5624 13.8558C65.4175 10.4927 62.2692 5.55554 59.407 1.76319L52.9672 5.12621C55.7578 8.91856 58.5484 14.2851 59.6933 17.5766L66.5624 13.8558ZM23.6302 12.854C23.1293 9.70565 21.6983 4.69689 20.1241 0.976105L13.1118 2.55028C14.5429 6.48573 15.8309 11.6376 16.1171 14.8575L23.6302 12.854ZM12.0385 14.2135C11.3945 10.9936 9.31947 6.12797 7.24442 2.47873L0.303711 4.69689C2.23566 8.48924 4.16761 13.5695 4.66849 16.7179L12.0385 14.2135ZM9.67724 33.8192H16.0455V37.8978H9.67724V33.8192ZM9.67724 23.8017H16.0455V27.9518H9.67724V23.8017ZM29.2114 27.9518H23.1293V23.8017H29.2114V27.9518ZM29.2114 37.8978H23.1293V33.8192H29.2114V37.8978ZM38.4418 55.9293V48.4162H23.6302V44.1945H36.5099V17.5766H31.8589C34.2202 14.0704 37.297 8.56079 39.8729 3.48048L31.0718 1.11921C29.8554 5.62709 27.2794 11.566 25.0613 15.4299L31.5727 17.5766H2.80809V44.1945H15.5446V48.4162H0.303711V55.9293H15.5446V67.6641H23.6302V55.9293H38.4418ZM59.1924 28.0949C57.8329 32.4597 55.9009 36.6814 53.6112 40.6884C52.9672 36.896 52.4663 32.5313 52.037 27.8803L67.4211 25.9483L66.5624 18.149L51.4646 20.0094C51.1068 14.0704 50.8922 7.7737 50.8206 1.19076H42.735C42.9497 8.20302 43.1644 14.786 43.5221 20.9396L37.1539 21.7267L38.0125 29.5976L44.1661 28.8105C44.8101 36.896 45.8118 43.9083 47.1714 49.7042C42.6635 54.856 37.3685 59.0777 31.358 61.7967C33.5046 63.2994 36.0805 65.8037 37.5116 67.7357C41.9479 65.3029 46.0981 62.0829 49.8188 58.219C52.2517 64.0149 55.5431 67.3064 59.8364 67.4495C62.8416 67.5926 66.4193 64.802 68.2797 52.781C66.9202 51.9939 63.5572 49.7042 62.1976 47.9153C61.7683 54.0689 61.0528 57.3604 59.8364 57.3604C58.3337 57.2173 56.9742 54.9276 55.8294 50.9921C60.051 45.1247 63.414 38.5418 65.6322 31.7442L59.1924 28.0949Z" fill="white"/>
<path d="M91.8209 3.48048L90.4613 11.7807C98.9762 13.2118 112.357 14.786 119.87 15.3584L121.015 6.98661C113.573 6.48573 99.8349 4.98311 91.8209 3.48048ZM123.519 26.2346L118.296 20.2956C117.509 20.5818 115.577 20.9396 114.217 21.0827C108.278 21.8698 92.0355 22.5853 88.6725 22.5853C86.025 22.6569 83.4491 22.5138 81.8034 22.3707L82.662 32.2451C84.1646 32.0304 86.3112 31.6726 88.8156 31.458C92.8942 31.1002 101.481 30.3131 106.489 30.17C99.978 37.0392 85.3095 51.6361 81.6602 55.3569C79.7283 57.2173 78.011 58.7199 76.723 59.7932L85.1664 65.7322C90.1036 59.4355 95.4701 53.5681 97.9029 51.0637C99.6202 49.3464 101.123 48.2015 102.625 48.2015C104.057 48.2015 105.631 49.1317 106.418 51.6361C106.919 53.4249 107.777 56.788 108.493 58.9346C110.282 63.5856 113.931 65.0882 120.729 65.0882C124.449 65.0882 131.819 64.5873 134.753 64.0149L135.325 54.6414C131.748 55.3569 126.811 55.9293 121.301 55.9293C118.51 55.9293 116.936 54.7845 116.292 52.5663C115.648 50.7059 114.861 47.9869 114.217 46.0549C113.287 43.4074 111.999 41.8332 109.924 41.1893C109.137 40.903 107.849 40.6168 107.205 40.6884C108.922 38.828 115.577 32.6744 118.868 29.8838C120.156 28.8105 121.659 27.5225 123.519 26.2346Z" fill="white"/>
</svg>
